<svg width="400" height="360" viewBox="0 0 400 360" fill="none" xmlns="http://www.w3.org/2000/svg">
<rect width="400" height="360" rx="8" fill="#068DF2"/>
<rect x="116" y="134" width="32.2391" height="32.2391" rx="4.60558" transform="rotate(-30 116 134)" fill="#65CDEA"/>
<g clip-path="url(#clip0_370_7744)">
<path d="M144.667 136.062C146.784 139.729 145.524 144.431 141.857 146.548C138.191 148.665 133.489 147.405 131.372 143.738C131.309 143.629 131.247 143.514 131.19 143.4L132.52 142.633C132.576 142.746 132.638 142.861 132.701 142.971C134.394 145.902 138.158 146.911 141.09 145.218C144.021 143.526 145.03 139.762 143.338 136.83C141.645 133.898 137.881 132.89 134.949 134.582C133.51 135.413 132.49 136.756 132.074 138.361L130.589 137.977C131.108 135.967 132.383 134.291 134.182 133.253C137.848 131.136 142.55 132.396 144.667 136.062Z" fill="#0A2647"/>
<path d="M128.915 137.18L130.834 140.503L134.158 138.584L128.915 137.18Z" fill="#0A2647"/>
</g>
<rect x="250.74" y="112.74" width="32" height="32" rx="5.07003" transform="rotate(30 250.74 112.74)" fill="#E3ACF9"/>
<path d="M260.517 126.611L250.031 129.348L256.711 133.204L260.517 126.611Z" fill="#6F1AB6"/>
<path d="M255.153 121.754L257.739 131.158L254.773 131.932L252.187 122.528L255.153 121.754Z" fill="#6F1AB6"/>
<path d="M253.491 141.893L263.977 139.156L257.297 135.3L253.491 141.893Z" fill="#6F1AB6"/>
<path d="M258.833 146.659L256.247 137.255L259.213 136.481L261.799 145.885L258.833 146.659Z" fill="#6F1AB6"/>
<path d="M157.333 198.333H250.667V221.666H157.333V198.333Z" fill="#D17A00"/>
<path d="M157.333 245H144V218.333L157.333 198.333V245ZM250.667 245H264V218.333L250.667 198.333V245Z" fill="#8A5100"/>
<path d="M237.333 238.75H170.667V151.25H216.5L237.333 172.083V238.75Z" fill="#FF5722"/>
<path d="M234.208 174.167H214.417V154.375L234.208 174.167Z" fill="#FBE9E7"/>
<path d="M186.938 206.458V213.75H182.75V193.015H189.815C191.865 193.015 193.502 193.652 194.721 194.923C195.94 196.194 196.55 197.846 196.55 199.879C196.55 201.913 195.946 203.515 194.742 204.694C193.537 205.873 191.865 206.458 189.727 206.458H186.938ZM186.938 202.969H189.815C190.613 202.969 191.229 202.708 191.667 202.185C192.104 201.663 192.321 200.904 192.321 199.906C192.321 198.871 192.098 198.048 191.652 197.433C191.206 196.823 190.608 196.513 189.858 196.502H186.938V202.969ZM199.342 213.75V193.015H204.825C207.246 193.015 209.177 193.783 210.613 195.321C212.052 196.858 212.785 198.967 212.815 201.644V205.004C212.815 207.729 212.094 209.869 210.658 211.419C209.217 212.975 207.235 213.75 204.71 213.75H199.342ZM203.527 196.504V210.275H204.781C206.177 210.275 207.16 209.906 207.729 209.171C208.298 208.435 208.598 207.167 208.627 205.363V201.76C208.627 199.823 208.356 198.473 207.815 197.71C207.273 196.946 206.352 196.544 205.052 196.506L203.527 196.504ZM226.515 205.29H220.006V213.75H215.819V193.015H227.298V196.504H220.006V201.817H226.515V205.29Z" fill="#FFFFFE"/>
<path d="M257.333 311.666H150.667C147 311.666 144 308.666 144 305V218.333H264V305C264 308.666 261 311.666 257.333 311.666Z" fill="#FF9800"/>
<path d="M215.667 241.667H192.333C189.667 241.667 187.333 239.334 187.333 236.667C187.333 234 189.667 231.667 192.333 231.667H215.667C218.333 231.667 220.667 234 220.667 236.667C220.667 239.334 218.333 241.667 215.667 241.667Z" fill="#8A5100"/>
<rect x="186" y="91" width="33" height="33.0402" rx="4.71429" fill="#1976D2"/>
<path d="M205.303 107.596L206.981 98.2512H210.477L207.373 113.154H203.717L201.758 104.658L199.839 113.154H196.194L193.079 98.25H196.584L198.262 107.595L200.271 98.25H203.264L205.303 107.596Z" fill="#FAFAFA"/>
<rect x="236.282" y="48" width="32" height="32" rx="4.56587" transform="rotate(15 236.282 48)" fill="#FFCDD2"/>
<g clip-path="url(#clip1_370_7744)">
<path d="M238.298 71.3867L253.753 75.5278L253.556 76.2629L238.101 72.1218L238.298 71.3867Z" fill="#DB005B"/>
<path d="M255.354 68.0783C253.956 67.7037 252.841 68.6261 252.082 69.25C251.932 69.3674 251.773 69.5216 251.623 69.639C251.672 69.4553 251.695 69.2249 251.734 69.0779C251.953 68.1125 252.143 67.2573 251.517 67.0897C251.076 66.9714 250.58 67.3505 249.774 68.0013C248.886 68.6692 247.687 69.6086 246.951 69.4114C246.878 69.3917 246.814 69.3352 246.74 69.3155C248.476 68.2837 249.778 66.663 250.093 65.4869C250.202 65.0827 250.18 64.7223 250.065 64.4157C250.023 64.1289 249.788 63.8295 249.31 63.7013C247.985 63.3464 246.381 64.7681 245.82 66.863C245.623 67.598 245.583 68.3358 245.767 68.9758C244.863 69.4034 243.712 69.7252 242.535 69.4097C242.093 69.2914 241.765 69.0458 241.465 68.6899C243.396 67.0799 246.043 64.5592 246.742 61.9498C247.175 60.3327 246.344 59.7554 245.571 59.5484C244.431 59.2427 241.282 60.2503 240.129 64.5504C239.824 65.6897 239.918 67.2512 240.472 68.4237C239.573 69.1283 238.901 69.5783 238.864 69.5684C238.677 69.676 238.655 69.9064 238.763 70.0928C238.817 70.186 238.88 70.2425 238.991 70.2721C239.101 70.3017 239.185 70.2846 239.278 70.2308C239.371 70.1771 239.997 69.7539 240.886 69.0861C241.266 69.5818 241.722 69.9404 242.348 70.108C243.599 70.4432 244.924 70.2074 246.097 69.6552C246.269 69.8982 246.507 70.0407 246.801 70.1196C247.905 70.4154 249.206 69.3854 250.292 68.5732C250.591 68.3384 250.984 68.0497 251.217 67.9153C251.185 68.1824 251.104 68.6333 251.025 68.9273C250.825 69.8192 250.668 70.4072 251.183 70.5453C251.625 70.6636 252.037 70.3014 252.58 69.8954C253.292 69.2984 254.154 68.5839 255.184 68.86C255.405 68.9192 255.592 68.8116 255.651 68.5911C255.71 68.3706 255.575 68.1375 255.354 68.0783ZM241.071 67.954C240.662 66.9778 240.609 65.7031 240.865 64.7476C241.85 61.0723 244.528 60.0567 245.374 60.2834C246.184 60.5003 246.203 61.0176 246.006 61.7526C245.376 64.1048 242.935 66.4444 241.071 67.954ZM246.466 68.5724C246.391 68.1188 246.418 67.5747 246.556 67.0602C247.019 65.3328 248.303 64.2195 249.113 64.4364C249.333 64.4955 249.387 64.5888 249.404 64.6721C249.448 64.8021 249.436 64.9957 249.377 65.2162C249.131 66.135 248.084 67.3909 246.869 68.247C246.756 68.3743 246.616 68.455 246.466 68.5724Z" fill="#DB005B"/>
</g>
<rect x="124" y="56.2822" width="32" height="32" rx="4.85714" transform="rotate(-15 124 56.2822)" fill="#FF5722"/>
<g clip-path="url(#clip2_370_7744)">
<path d="M138.464 64.633C138.138 63.4187 138.866 62.1589 140.08 61.8336L143.76 60.8476C144.974 60.5222 146.234 61.2495 146.559 62.4638L148.031 62.0694C147.489 60.0456 145.389 58.8334 143.365 59.3757L139.686 60.3617C137.662 60.904 136.45 63.0035 136.992 65.0274L138.096 69.1487L139.568 68.7543L138.464 64.633Z" fill="#FFFFFE"/>
<path d="M136.26 68.7725L139.443 71.2324L140.97 67.5104L136.26 68.7725Z" fill="#FFFFFE"/>
<path d="M148.728 70.5592C149.053 71.7735 148.326 73.0332 147.112 73.3586L143.432 74.3445C142.218 74.6699 140.958 73.9426 140.633 72.7283L139.161 73.1227C139.703 75.1465 141.803 76.3587 143.826 75.8164L147.506 74.8305C149.53 74.2882 150.742 72.1886 150.2 70.1648L149.017 65.7491L147.545 66.1435L148.728 70.5592Z" fill="#FFFFFE"/>
<path d="M146.222 67.6808L147.748 63.9588L150.932 66.4188L146.222 67.6808Z" fill="#FFFFFE"/>
</g>
<defs>
<clipPath id="clip0_370_7744">
<rect width="18.4223" height="18.4223" fill="white" transform="translate(125.437 136.528) rotate(-30)"/>
</clipPath>
<clipPath id="clip1_370_7744">
<rect width="18.2857" height="18.2635" fill="white" transform="translate(241.133 56.3896) rotate(15)"/>
</clipPath>
<clipPath id="clip2_370_7744">
<rect width="18.2857" height="18.2857" fill="white" transform="translate(132.398 61.1309) rotate(-15)"/>
</clipPath>
</defs>
</svg>
