<?xml version="1.0" encoding="utf-8"?>
<!-- Svg Vector Icons : http://www.onlinewebfonts.com/icon -->
<!DOCTYPE svg PUBLIC "-//W3C//DTD SVG 1.1//EN" "http://www.w3.org/Graphics/SVG/1.1/DTD/svg11.dtd">
<svg version="1.1" xmlns="http://www.w3.org/2000/svg" xmlns:xlink="http://www.w3.org/1999/xlink" x="0px" y="0px" viewBox="0 0 256 256" enable-background="new 0 0 256 256" xml:space="preserve">
<metadata> Svg Vector Icons : http://www.onlinewebfonts.com/icon </metadata>
<g><g><g><path fill="#000000" d="M120.5,128v118h6.9h6.9V128V10h-6.9h-6.9V128z"/><path fill="#000000" d="M51.1,104.5L27.6,128l22.8,22.8l22.8,22.8l4.8-4.8l4.8-4.8l-18-18l-18-18l3.2-3.2c1.8-1.8,10.1-9.8,18.4-17.8C77,99,83.9,92.2,84,92c0.1-0.3-8.9-11-9.3-11C74.7,81,64,91.5,51.1,104.5z"/><path fill="#000000" d="M176.7,85.9l-4.8,4.8l18,18l18,18l-18,18l-18,18l4.8,4.8l4.8,4.8l23.4-23.4c12.9-12.9,23.4-23.6,23.4-23.7c0-0.3-44.7-42.6-46.1-43.6C181.6,81.1,180.8,81.8,176.7,85.9z"/></g></g></g>
</svg>